<svg version="1.2" xmlns="http://www.w3.org/2000/svg" viewBox="0 0 2000 2000" width="2000" height="2000">
	<title>chatbot-svg-svg</title>
	<style>
		.s0 { fill: #ffffff } 
		.s1 { fill: #000000 } 
	</style>
	<path id="Shape 1" class="s0" d="m1000 1999c-553 0-1000-447-1000-1000 0-553 447-1000 1000-1000 553 0 1000 447 1000 1000 0 553-447 1000-1000 1000z"/>
	<g id="Layer">
		<path id="Layer" fill-rule="evenodd" class="s1" d="m592.1 433.7c14.3 6.2 30 22.2 37.7 37.4 8.6 17.5 8.3 44.9-0.3 63.5-7.8 16.7-20.7 29.8-37.2 37.2l-12.6 5.7 0.2 74.5c0 58.6 0.7 73.4 2.9 69.8 39.1-62.9 73-98.9 125.7-133.1 46.5-30.2 91.8-48.1 155-60.8 24.1-4.8 203.7-7.1 242.1-3.1 132 13.6 249.1 86.8 307 191.8l6.7 12.2v-151.3l-12.6-5.7c-15.8-7.1-28.2-19.3-36.8-35.8-5.4-10.5-6.4-15.5-6.6-32.6 0-24.1 5.4-38 22.1-54.4 15.6-15.5 28.7-20.8 53-20.8 24.3 0 37.5 5.3 53 20.8 15.9 15.9 21.9 30.3 22.1 53.2 0 15.7-1.2 21.4-6.2 32.4-7.8 16.7-20.7 29.8-37.2 37.2l-12.6 5.7v212.1h32.9c41.3 0 51 2.9 65.6 19.1 5.7 6.2 11.7 15.7 13.1 21 4.1 13.1 4.1 192.9 0 206.1-3.3 11.4-18.1 28.8-28.1 32.9-6.9 2.8-7.2 3.6-7.2 17.6 0 18.9-4.3 75.9-7.4 100.4-18.3 142.5-77 239.1-175.3 289.2-13.1 6.6-28.6 13.8-34.6 16.2-10.7 3.8-11.2 4.5-12.6 15.2-3.1 24.4-20.8 47.7-44.2 58.5-15.9 7.4-47.2 6.9-62.7-0.7-13.6-6.5-29.1-21.5-35.5-33.9-10.5-20.8-9.8-50.3 1.9-71.6 24.1-44.6 88-51.3 121.9-12.8 11.7 13.3 12.1 13.3 44.6-2.9 42.2-21.2 74.6-49.4 99.7-86.8 39.1-59 58.2-133.1 64.9-254.6l1.6-26.7h-40.3l-4.3 22c-29.8 155.3-165.3 265.9-326.3 266.9h-26.7l-71.6 86.1c-90.8 109.3-91.3 109.7-106.6 116.4-32.2 13.8-69.9-5.7-78.2-40.3-2.4-10.5-1.5-18.1 10.5-84.4 7.4-40.1 13.3-74 13.3-75.2 0-1.2-9.3-2.8-20.5-3.8-41.5-3.1-82.3-14.5-121.4-34.3-92.8-46.6-157.2-130.8-176.5-231.4l-4.3-22h-33.4c-19.1 0-37.5-1.2-43.2-2.8-13.1-3.8-32.9-23.6-36.7-36.8-4.1-13.8-4.1-193.2 0-207 3.8-13.1 23.6-32.9 36.7-36.7 5.7-1.7 23.9-2.9 42.5-2.9h32.4v-212.1l-12.6-5.7c-41.8-19.1-57-70.8-32.2-109.5 9-14.3 22.9-25.5 38.6-31 15.8-5.7 41-4.8 56.8 2.4zm-68.7 61.3c-6.9 37.7 37 61.8 63.7 34.8 19.1-19.1 13.1-51-11.5-61.3-21.7-9.3-47.9 4.1-52.2 26.5zm877.8 0c-6.9 37.7 37 61.8 63.7 34.8 19.1-19.1 13.1-51-11.5-61.3-21.7-9.3-47.9 4.1-52.2 26.5zm-393.4 66.6c-86.1-0.5-114.2 0-130.9 2.6-143.1 22.9-259.3 124.5-290.5 254-4.6 18.6-5 29.6-6 126.4-1.4 140.8 1.4 161.5 29.1 218.5 48.2 99.3 150.8 163.2 261.9 163.2 22.9 0 23.6 0.2 30.5 6.9 3.9 3.8 7 8.8 7 10.7 0 2.2-2.7 17.5-6 34.2-18.9 97.8-25.1 137.8-22.7 144 4.3 10.3 17.7 14.3 27.7 8.6 2.9-1.7 41.7-47 86.8-100.6 44.9-54 83.8-99 86.6-100.7 3.4-1.9 16.7-2.9 37.5-3.1 54.4 0 94.7-9.1 139.5-31.3 86.1-42.2 146.7-127.3 158.6-221.6 1.9-15.7 2.4-55.3 1.7-128.8-1-96.8-1.4-107.8-6-126.4-30-124-134.3-219.9-272.8-250.9-20.6-4.6-30.8-5-132-5.7zm-466.3 266.2h-32.2c-31.2 0-32.7 0.2-38.2 5.9l-5.9 5.7v186.6l5.9 5.7c5.5 5.7 7 6 38.2 6h32.2zm948.2 0h-32.2v209.9h32.2c31.2 0 32.7-0.3 38.2-6l5.9-5.7v-186.5l-5.9-5.8c-5.5-5.7-7-5.9-38.2-5.9zm-287.7 694.3c15.5 15.5 37.5 15.5 53 0 19.1-19 13.1-51-11.5-61.3-38.4-16.2-71.1 32-41.5 61.3z"/>
		<path id="Layer" fill-rule="evenodd" class="s1" d="m1005.5 675.8l212.3 0.5 15.7 6.2c23.4 9.1 36.7 17.6 52.2 33.4 14.4 15 25.1 32.7 32.5 54.6 4.3 12.4 4.5 23.1 4.5 181.3 0 158.1-0.2 168.9-4.5 181.3-15 44.6-45.1 74.6-89.7 89.7-12.4 4.3-24.3 4.5-229 4.5-204.7 0-216.6-0.2-229-4.5-48.4-16.5-84.4-56.3-92.8-102.6-3.6-19.3-3.6-317.5 0-336.8 6.9-38.7 36-76.6 72.3-94 10.7-5 24.8-10.3 31.2-11.7 7.2-1.2 97.6-1.9 224.3-1.9zm207.5 38.7l-208.7-0.5c-121.2-0.3-212.6 0.7-218 1.9-14.8 3.6-36.5 16.2-47 27.7-5.3 5.7-13.2 17.6-17.2 26.4l-7.6 16v331.6l7.6 16c10.5 22.1 23.8 36 45.5 46.7l18.2 8.8h427.2l16-7.6c22.2-10.5 36-23.9 46.7-45.6l8.8-18.1v-332l-8.8-18.2c-10.7-21.7-24.5-35-46.7-45.5z"/>
		<path id="Layer" class="s1" d="m929.1 757.4c-11.9 11.7-3.5 32.2 13.2 32.2 9.7 0 19-9.3 19-19.1 0-9.8-9.3-19.1-19-19.1-4.6 0-9.6 2.2-13.2 6z"/>
		<path id="Layer" class="s1" d="m1005.5 757.4c-3.9 3.6-6 8.6-6 13.1 0 4.5 2.1 9.5 6 13.1l5.7 6h93.3 93.2l5.7-6c3.9-3.6 6-8.6 6-13.1 0-4.5-2.1-9.5-6-13.1l-5.7-6h-93.2-93.3z"/>
		<path id="Layer" class="s1" d="m828.9 868.1c-31.7 8.3-54.8 35.5-57.7 67.5-1.2 12.1-0.7 14 4.8 19.5 13.4 13.4 29.6 5.8 32.9-15.2 3.6-22.9 16.5-34.6 37.9-34.6 21.5 0 34.4 11.7 38 34.6 3.3 21 19.5 28.6 32.9 15.2 5.7-5.7 5.9-7.1 4.5-20.5-2.6-26.9-19.3-50.1-44.1-61.8-11.5-5.2-37.5-7.8-49.2-4.7z"/>
		<path id="Layer" fill-rule="evenodd" class="s1" d="m1156 866.9c28.8 1.6 49.4 14.8 63.2 40 7.4 13.6 8.1 16.7 8.1 35.4 0 18.8-0.7 21.4-8.6 35.7-36.7 66.8-136.2 45.6-142.4-30.3-2.6-34.3 18.1-65.6 52-78 7.6-2.6 15.8-3.5 27.7-2.8zm-41 67c-7 37.7 36.9 61.8 63.6 34.8 19.1-19.1 13.2-51-11.4-61.3-21.7-9.3-48 4.1-52.2 26.5z"/>
	</g>
</svg>